{
  "accessors": [
    {
      "bufferView": 2,
      "componentType": 5126,
      "count": 772,
      "max": [
        0.017180699855089188,
        0.027355186641216278,
        0.017180699855089188
      ],
      "min": [
        -0.017180699855089188,
        0,
        -0.017180699855089188
      ],
      "type": "VEC3"
    },
    {
      "bufferView": 2,
      "byteOffset": 9264,
      "componentType": 5126,
      "count": 772,
      "max": [
        1,
        1,
        1
      ],
      "min": [
        -1,
        -1,
        -1
      ],
      "type": "VEC3"
    },
    {
      "bufferView": 1,
      "componentType": 5126,
      "count": 772,
      "max": [
        3,
        0.45186290144920349
      ],
      "min": [
        0,
        -0.079391360282897949
      ],
      "type": "VEC2"
    },
    {
      "bufferView": 0,
      "componentType": 5125,
      "count": 3894,
      "max": [
        771
      ],
      "min": [
        0
      ],
      "type": "SCALAR"
    },
    {
      "bufferView": 2,
      "byteOffset": 18528,
      "componentType": 5126,
      "count": 692,
      "max": [
        0.038037508726119995,
        0.12595582008361816,
        0.038037512451410294
      ],
      "min": [
        -0.038037490099668503,
        0.026078365743160248,
        -0.0380374975502491
      ],
      "type": "VEC3"
    },
    {
      "bufferView": 2,
      "byteOffset": 26832,
      "componentType": 5126,
      "count": 692,
      "max": [
        1,
        0.99440509080886841,
        1
      ],
      "min": [
        -1,
        -1,
        -1
      ],
      "type": "VEC3"
    },
    {
      "bufferView": 1,
      "byteOffset": 6176,
      "componentType": 5126,
      "count": 692,
      "max": [
        1.0000002384185791,
        1
      ],
      "min": [
        0,
        0.08994998037815094
      ],
      "type": "VEC2"
    },
    {
      "bufferView": 0,
      "byteOffset": 15576,
      "componentType": 5125,
      "count": 3834,
      "max": [
        691
      ],
      "min": [
        0
      ],
      "type": "SCALAR"
    },
    {
      "bufferView": 2,
      "byteOffset": 35136,
      "componentType": 5126,
      "count": 661,
      "max": [
        0.0070781968533992767,
        0.069533318281173706,
        0.0015343073755502701
      ],
      "min": [
        -0.0070781977847218513,
        0.024812577292323112,
        -0.0015343051636591554
      ],
      "type": "VEC3"
    },
    {
      "bufferView": 2,
      "byteOffset": 43068,
      "componentType": 5126,
      "count": 661,
      "max": [
        0.95434737205505371,
        0.95432233810424805,
        0.99949872493743896
      ],
      "min": [
        -0.95434737205505371,
        -0.95431095361709595,
        -0.99949872493743896
      ],
      "type": "VEC3"
    },
    {
      "bufferView": 1,
      "byteOffset": 11712,
      "componentType": 5126,
      "count": 661,
      "max": [
        1.0004321336746216,
        1
      ],
      "min": [
        -0.00043226371053606272,
        0
      ],
      "type": "VEC2"
    },
    {
      "bufferView": 0,
      "byteOffset": 30912,
      "componentType": 5125,
      "count": 3024,
      "max": [
        660
      ],
      "min": [
        0
      ],
      "type": "SCALAR"
    },
    {
      "bufferView": 2,
      "byteOffset": 51000,
      "componentType": 5126,
      "count": 291,
      "max": [
        0.0071470635011792183,
        0.0030579343438148499,
        0.0071470639668405056
      ],
      "min": [
        -0.0071470644325017929,
        1.7404556274414062e-05,
        -0.0071470639668405056
      ],
      "type": "VEC3"
    },
    {
      "bufferView": 2,
      "byteOffset": 54492,
      "componentType": 5126,
      "count": 291,
      "max": [
        1,
        1,
        1
      ],
      "min": [
        -1,
        -0.96769046783447266,
        -1
      ],
      "type": "VEC3"
    },
    {
      "bufferView": 1,
      "byteOffset": 17000,
      "componentType": 5126,
      "count": 291,
      "max": [
        1,
        1
      ],
      "min": [
        0,
        0.01000000536441803
      ],
      "type": "VEC2"
    },
    {
      "bufferView": 0,
      "byteOffset": 43008,
      "componentType": 5125,
      "count": 1002,
      "max": [
        290
      ],
      "min": [
        0
      ],
      "type": "SCALAR"
    },
    {
      "bufferView": 2,
      "byteOffset": 57984,
      "componentType": 5126,
      "count": 1675,
      "max": [
        0.013113131746649742,
        0.087942875921726227,
        0.00062704173615202308
      ],
      "min": [
        -0.013113133609294891,
        0.02803947776556015,
        -0.0017011318122968078
      ],
      "type": "VEC3"
    },
    {
      "bufferView": 2,
      "byteOffset": 78084,
      "componentType": 5126,
      "count": 1675,
      "max": [
        1,
        1,
        1
      ],
      "min": [
        -1,
        -1,
        -1
      ],
      "type": "VEC3"
    },
    {
      "bufferView": 1,
      "byteOffset": 19328,
      "componentType": 5126,
      "count": 1675,
      "max": [
        1,
        1
      ],
      "min": [
        0,
        0.01000000536441803
      ],
      "type": "VEC2"
    },
    {
      "bufferView": 0,
      "byteOffset": 47016,
      "componentType": 5125,
      "count": 7878,
      "max": [
        1674
      ],
      "min": [
        0
      ],
      "type": "SCALAR"
    },
    {
      "bufferView": 2,
      "byteOffset": 98184,
      "componentType": 5126,
      "count": 2086,
      "max": [
        0.014072651974856853,
        0.08468329906463623,
        0.00024306376872118562
      ],
      "min": [
        -0.014072652906179428,
        0.082168802618980408,
        -0.0012180772610008717
      ],
      "type": "VEC3"
    },
    {
      "bufferView": 2,
      "byteOffset": 123216,
      "componentType": 5126,
      "count": 2086,
      "max": [
        0.98380780220031738,
        0.99943125247955322,
        1
      ],
      "min": [
        -0.98380780220031738,
        -0.99943125247955322,
        -1
      ],
      "type": "VEC3"
    },
    {
      "bufferView": 1,
      "byteOffset": 32728,
      "componentType": 5126,
      "count": 2086,
      "max": [
        0,
        0
      ],
      "min": [
        0,
        0
      ],
      "type": "VEC2"
    },
    {
      "bufferView": 0,
      "byteOffset": 78528,
      "componentType": 5125,
      "count": 12444,
      "max": [
        2085
      ],
      "min": [
        0
      ],
      "type": "SCALAR"
    }
  ],
  "asset": {
    "extras": {
      "author": "AleixoAlonso (https://sketchfab.com/AleixoAlonso)",
      "license": "CC-BY-4.0 (http://creativecommons.org/licenses/by/4.0/)",
      "source": "https://sketchfab.com/3d-models/incandescent-light-bulb-217c6b059c584243893b36ab76472ddd",
      "title": "Incandescent Light Bulb"
    },
    "generator": "Sketchfab-8.2.1",
    "version": "2.0"
  },
  "bufferViews": [
    {
      "buffer": 0,
      "byteLength": 128304,
      "byteOffset": 0,
      "name": "floatBufferViews",
      "target": 34963
    },
    {
      "buffer": 0,
      "byteLength": 49416,
      "byteOffset": 128304,
      "byteStride": 8,
      "name": "floatBufferViews",
      "target": 34962
    },
    {
      "buffer": 0,
      "byteLength": 148248,
      "byteOffset": 177720,
      "byteStride": 12,
      "name": "floatBufferViews",
      "target": 34962
    }
  ],
  "buffers": [
    {
      "byteLength": 325968,
      "uri": "scene.bin"
    }
  ],
  "materials": [
    {
      "doubleSided": true,
      "emissiveFactor": [
        0,
        0,
        0
      ],
      "name": "LMP0002_Metal",
      "pbrMetallicRoughness": {
        "baseColorFactor": [
          0.80000000000000004,
          0.80000000000000004,
          0.80000000000000004,
          1
        ],
        "metallicFactor": 1,
        "roughnessFactor": 0.25
      }
    },
    {
      "alphaMode": "BLEND",
      "doubleSided": true,
      "emissiveFactor": [
        0,
        0,
        0
      ],
      "name": "LMP0002_GlassNo_Refraction",
      "pbrMetallicRoughness": {
        "baseColorFactor": [
          1,
          1,
          1,
          0
        ],
        "metallicFactor": 1,
        "roughnessFactor": 1
      }
    },
    {
      "alphaMode": "BLEND",
      "doubleSided": true,
      "emissiveFactor": [
        0,
        0,
        0
      ],
      "name": "LMP0002_Plexiglass",
      "pbrMetallicRoughness": {
        "baseColorFactor": [
          1,
          1,
          1,
          0.2578125
        ],
        "metallicFactor": 1,
        "roughnessFactor": 1
      }
    },
    {
      "doubleSided": true,
      "emissiveFactor": [
        0,
        0,
        0
      ],
      "name": "LMP0002_Conductor",
      "pbrMetallicRoughness": {
        "baseColorFactor": [
          0,
          0,
          0,
          1
        ],
        "metallicFactor": 0,
        "roughnessFactor": 0.25
      }
    },
    {
      "doubleSided": true,
      "emissiveFactor": [
        0,
        0,
        0
      ],
      "name": "LMP0002_Filament",
      "pbrMetallicRoughness": {
        "baseColorFactor": [
          0.147954,
          0.147954,
          0.147954,
          1
        ],
        "metallicFactor": 1,
        "roughnessFactor": 0.5
      }
    },
    {
      "doubleSided": true,
      "name": "LMP0002_Emitter",
      "pbrMetallicRoughness": {
        "baseColorFactor": [
          0.147954,
          0.147954,
          0.147954,
          1
        ],
        "metallicFactor": 1,
        "roughnessFactor": 0.5
      }
    }
  ],
  "meshes": [
    {
      "primitives": [
        {
          "attributes": {
            "NORMAL": 1,
            "POSITION": 0,
            "TEXCOORD_0": 2
          },
          "indices": 3,
          "material": 0,
          "mode": 4
        }
      ]
    },
    {
      "primitives": [
        {
          "attributes": {
            "NORMAL": 5,
            "POSITION": 4,
            "TEXCOORD_0": 6
          },
          "indices": 7,
          "material": 1,
          "mode": 4
        }
      ]
    },
    {
      "primitives": [
        {
          "attributes": {
            "NORMAL": 9,
            "POSITION": 8,
            "TEXCOORD_0": 10
          },
          "indices": 11,
          "material": 2,
          "mode": 4
        }
      ]
    },
    {
      "primitives": [
        {
          "attributes": {
            "NORMAL": 13,
            "POSITION": 12,
            "TEXCOORD_0": 14
          },
          "indices": 15,
          "material": 3,
          "mode": 4
        }
      ]
    },
    {
      "primitives": [
        {
          "attributes": {
            "NORMAL": 17,
            "POSITION": 16,
            "TEXCOORD_0": 18
          },
          "indices": 19,
          "material": 4,
          "mode": 4
        }
      ]
    },
    {
      "primitives": [
        {
          "attributes": {
            "NORMAL": 21,
            "POSITION": 20,
            "TEXCOORD_0": 22
          },
          "indices": 23,
          "material": 5,
          "mode": 4
        }
      ]
    }
  ],
  "nodes": [
    {
      "children": [
        1
      ],
      "name": "RootNode (gltf orientation matrix)",
      "rotation": [
        -0.70710678118654746,
        -0,
        -0,
        0.70710678118654757
      ]
    },
    {
      "children": [
        2
      ],
      "name": "RootNode (model correction matrix)"
    },
    {
      "children": [
        3
      ],
      "name": "root"
    },
    {
      "children": [
        4
      ],
      "matrix": [
        1,
        0,
        0,
        0,
        0,
        2.2204460492503131e-16,
        1,
        0,
        0,
        -1,
        2.2204460492503131e-16,
        0,
        0,
        0,
        0,
        1
      ],
      "name": "GLTF_SceneRootNode"
    },
    {
      "children": [
        5,
        6,
        7,
        8,
        9,
        10
      ],
      "name": "#LMP0002_Single_Light_Bulb(No_Refraction)_0"
    },
    {
      "mesh": 0,
      "name": ""
    },
    {
      "mesh": 1,
      "name": ""
    },
    {
      "mesh": 2,
      "name": ""
    },
    {
      "mesh": 3,
      "name": ""
    },
    {
      "mesh": 4,
      "name": ""
    },
    {
      "mesh": 5,
      "name": ""
    }
  ],
  "scene": 0,
  "scenes": [
    {
      "name": "OSG_Scene",
      "nodes": [
        0
      ]
    }
  ]
}

